<svg xmlns="http://www.w3.org/2000/svg" viewBox="0 0 180 180" fill="none" shape-rendering="auto"><metadata xmlns:rdf="http://www.w3.org/1999/02/22-rdf-syntax-ns#" xmlns:xsi="http://www.w3.org/2001/XMLSchema-instance" xmlns:dc="http://purl.org/dc/elements/1.1/" xmlns:dcterms="http://purl.org/dc/terms/"><rdf:RDF><rdf:Description><dc:title>Bottts</dc:title><dc:creator>Pablo Stanley</dc:creator><dc:source xsi:type="dcterms:URI">https://bottts.com/</dc:source><dcterms:license xsi:type="dcterms:URI">https://bottts.com/</dcterms:license><dc:rights>Remix of „Bottts” (https://bottts.com/) by „Pablo Stanley”, licensed under „Free for personal and commercial use” (https://bottts.com/)</dc:rights></rdf:Description></rdf:RDF></metadata><mask id="viewboxMask"><rect width="180" height="180" rx="0" ry="0" x="0" y="0" fill="#fff" /></mask><g mask="url(#viewboxMask)"><g transform="translate(0 66)"><mask id="sidesSquareAssymetric-a" style="mask-type:luminance" maskUnits="userSpaceOnUse" x="10" y="8" width="165" height="60"><g fill="#fff"><rect x="10" y="31" width="36" height="30" rx="4"/><rect x="20" y="15" width="26" height="30" rx="4"/><rect x="139" y="23" width="36" height="30" rx="4"/><rect x="134" y="8" width="36" height="60" rx="4"/></g></mask><g mask="url(#sidesSquareAssymetric-a)"><path d="M0 0h180v76H0V0Z" fill="#f4511e"/><path d="M0 0h180v76H0V0Z" fill="#fff" fill-opacity=".3"/><path fill="#000" fill-opacity=".1" d="M0 47h180v29H0z"/><circle cx="161" cy="20" r="5" fill="#fff" fill-opacity=".6"/><circle cx="161" cy="36" r="5" fill="#fff" fill-opacity=".6"/></g></g><g transform="translate(41)"><mask id="topBulb01-a" style="mask-type:luminance" maskUnits="userSpaceOnUse" x="22" y="0" width="56" height="52"><g fill="#fff"><path fill-rule="evenodd" clip-rule="evenodd" d="M32 16A16 16 0 0 1 48 0h4a16 16 0 0 1 16 16v16a8 8 0 0 1-8 8H40a8 8 0 0 1-8-8V16Z"/><rect x="22" y="40" width="56" height="12" rx="1"/></g></mask><g mask="url(#topBulb01-a)"><path d="M0 0h100v52H0V0Z" fill="#f4511e"/><path d="M0 0h100v52H0V0Z" fill="#fff" fill-opacity=".3"/><path fill="#fff" fill-opacity=".4" d="M20-3h60v43H20z"/><path d="M49 3.5c4.93 0 9.37 2.13 12.44 5.52" stroke="#fff" stroke-width="2" stroke-linecap="round"/><path d="m49.83 26-9-9L38 19.83l10 10V40h4V29.97l10.14-10.14L59.31 17l-9 9h-.48Z" fill="#fff" fill-opacity=".8"/></g></g><g transform="translate(25 44)"><mask id="faceSquare03-a" style="mask-type:luminance" maskUnits="userSpaceOnUse" x="0" y="0" width="130" height="120"><path fill-rule="evenodd" clip-rule="evenodd" d="M0 18A18 18 0 0 1 18 0h94a18 18 0 0 1 18 18v27.15a40 40 0 0 1-2.28 13.31L110.24 108a18 18 0 0 1-16.98 12H36.74a18 18 0 0 1-16.98-12L2.28 58.45A40 40 0 0 1 0 45.15V18Z" fill="#fff"/></mask><g mask="url(#faceSquare03-a)"><path d="M-2-2h134v124H-2V-2Z" fill="#f4511e"/><g transform="translate(-1 -1)"></g></g></g><g transform="translate(52 124)"><g fill="#000" fill-opacity=".6"><rect x="28" y="10" width="6" height="14" rx="2"/><rect x="14" y="10" width="6" height="14" rx="2"/><rect x="42" y="10" width="6" height="14" rx="2"/><rect x="56" y="10" width="6" height="14" rx="2"/></g></g><g transform="translate(38 76)"><rect y="11" width="104" height="34" rx="17" fill="#000" fill-opacity=".8"/><circle cx="29" cy="28" r="13" fill="#F1EEDA"/><circle cx="75" cy="28" r="13" fill="#F1EEDA"/><rect x="24" y="23" width="10" height="10" rx="2" fill="#000" fill-opacity=".8"/><rect x="70" y="23" width="10" height="10" rx="2" fill="#000" fill-opacity=".8"/></g></g></svg>